#!OML:ASF E:\Steps\Project 1\Capture day 1\Session 2\Subject.ASF
:FULLY-SPECIFIED
:DEGREES
82
root 16.1944 16.3412 21.1511 -155.133 -0.299657 177.625
lowerback -30.0612 -2.15016 -7.49088
upperback -0.992717 -0.89412 -0.0204373
thorax 14.7853 -1.17283 3.61893
lowerneck -5.67055 -1.49473 -1.01113
upperneck 5.07204 -2.117 4.1078
head 2.66862 -0.913533 1.41579
rclavicle -3.40419e-015 -4.96962e-015
rhumerus -36.4332 -18.7105 -79.442
rradius 31.2646
rwrist -6.18821
rhand -15.0742 -74.6654
rfingers 7.12502
rthumb 11.0932 -255.648
lclavicle -3.40419e-015 -4.96962e-015
lhumerus -30.6123 7.86347 80.8772
lradius 21.2247
lwrist -4.56222
lhand -22.2807 -13.9618
lfingers 7.12502
lthumb 4.13773 15.9778
rfemur -22.4208 7.70987 18.5082
rtibia 8.77446
rfoot -19.0347 -3.08793
rtoes -18.2856
lfemur -22.7888 -8.82511 -21.7422
ltibia 8.11846
lfoot -6.73544 -2.17088
ltoes -33.5908
83
root 16.1948 16.3434 21.1521 -155.154 -0.322129 177.591
lowerback -30 -2.16016 -7.50598
upperback -0.993883 -0.904246 -0.0293913
thorax 14.7572 -1.17641 3.61459
lowerneck -5.7364 -1.49156 -0.969249
upperneck 5.04208 -2.11255 4.02793
head 2.66844 -0.913705 1.3821
rclavicle 6.06293e-015 1.68967e-014
rhumerus -36.4401 -18.8173 -79.3784
rradius 31.2353
rwrist -5.90441
rhand -15.1205 -74.89
rfingers 7.12502
rthumb 11.0485 -255.421
lclavicle 6.06293e-015 1.68967e-014
lhumerus -30.595 7.83144 80.8966
lradius 21.2172
lwrist -4.46983
lhand -22.2957 -13.7968
lfingers 7.12502
lthumb 4.12324 16.143
rfemur -22.4 7.65663 18.4811
rtibia 8.75226
rfoot -19.0406 -3.10691
rtoes -18.9448
lfemur -22.7666 -8.89435 -21.7597
ltibia 8.17472
lfoot -6.72519 -2.14091
ltoes -32.9877
84
root 16.1953 16.346 21.1518 -155.197 -0.348659 177.558
lowerback -29.9383 -2.14344 -7.51303
upperback -0.99886 -0.880606 -0.056029
thorax 14.7199 -1.16389 3.6001
lowerneck -5.72077 -1.45466 -1.08137
upperneck 4.96153 -2.06008 4.20783
head 2.64235 -0.884096 1.46264
rclavicle -6.26172e-015 1.13307e-014
rhumerus -36.5144 -18.9392 -79.3064
rradius 31.2308
rwrist -5.75076
rhand -15.187 -75.132
rfingers 7.12502
rthumb 10.9844 -255.175
lclavicle -6.26172e-015 1.13307e-014
lhumerus -30.6321 7.71967 80.9223
lradius 21.2546
lwrist -4.40083
lhand -22.3382 -13.4891
lfingers 7.12502
lthumb 4.0822 16.4516
rfemur -22.3351 7.60308 18.4716
rtibia 8.70196
rfoot -18.9753 -3.1118
rtoes -19.073
lfemur -22.7441 -9.00183 -21.7761
ltibia 8.30629
lfoot -6.79743 -2.0843
ltoes -33.3285
85
root 16.197 16.346 21.151 -155.2 -0.347812 177.59
lowerback -29.9466 -2.10791 -7.48591
upperback -1.01888 -0.847372 -0.0495647
thorax 14.6964 -1.14748 3.60561
lowerneck -5.61339 -1.45786 -1.20006
upperneck 4.9523 -2.06211 4.39704
head 2.62504 -0.880972 1.54581
rclavicle 4.96962e-017 8.94531e-015
rhumerus -36.6489 -18.9663 -79.2269
rradius 31.27
rwrist -5.78632
rhand -15.2725 -75.3407
rfingers 7.12502
rthumb 10.9019 -254.962
lclavicle 4.96962e-017 8.94531e-015
lhumerus -30.6794 7.71676 80.9313
lradius 21.2463
lwrist -4.46519
lhand -22.3328 -13.4605
lfingers 7.12502
lthumb 4.08736 16.48
rfemur -22.3288 7.68605 18.5049
rtibia 8.7211
rfoot -19.0055 -3.13767
rtoes -18.381
lfemur -22.7396 -9.02199 -21.7258
ltibia 8.3147
lfoot -6.80504 -2.08341
ltoes -32.2496
86
root 16.1982 16.3451 21.1508 -155.188 -0.328717 177.608
lowerback -29.9373 -2.07546 -7.46424
upperback -1.06969 -0.823786 -0.0435535
thorax 14.6299 -1.13544 3.60962
lowerneck -5.47466 -1.44545 -1.25527
upperneck 5.04876 -2.04439 4.43296
head 2.63262 -0.871622 1.56895
rclavicle -3.2551e-015 2.26615e-014
rhumerus -36.8223 -18.7929 -79.219
rradius 31.3896
rwrist -5.98463
rhand -15.3694 -75.6018
rfingers 7.12502
rthumb 10.8085 -254.696
lclavicle -3.2551e-015 2.26615e-014
lhumerus -30.783 7.71306 80.937
lradius 21.2423
lwrist -4.4955
lhand -22.2611 -13.5224
lfingers 7.12502
lthumb 4.15663 16.4168
rfemur -22.3569 7.78026 18.5051
rtibia 8.7687
rfoot -19.0743 -3.16123
rtoes -17.6598
lfemur -22.696 -9.03233 -21.6906
ltibia 8.18451
lfoot -6.76955 -2.09606
ltoes -33.3696
87
root 16.1981 16.3445 21.1516 -155.177 -0.361724 177.589
lowerback -30.0221 -2.07773 -7.41246
upperback -1.02694 -0.826576 -0.081772
thorax 14.7179 -1.1346 3.53717
lowerneck -5.40634 -1.40747 -1.24846
upperneck 5.02302 -1.99349 4.45419
head 2.60989 -0.846219 1.57663
rclavicle 4.52235e-015 1.51076e-014
rhumerus -36.7969 -18.5774 -79.3912
rradius 31.5128
rwrist -6.26855
rhand -15.4782 -75.9243
rfingers 7.12502
rthumb 10.7035 -254.368
lclavicle 4.52235e-015 1.51076e-014
lhumerus -30.7187 7.58655 80.9227
lradius 21.2275
lwrist -4.3308
lhand -22.236 -13.4772
lfingers 7.12502
lthumb 4.18085 16.4615
rfemur -22.3454 7.7198 18.4971
rtibia 8.73099
rfoot -19.0251 -3.0654
rtoes -17.4896
lfemur -22.6921 -9.04263 -21.7104
ltibia 8.1354
lfoot -6.84286 -2.10813
ltoes -32.1625
88
root 16.2001 16.3458 21.1559 -155.175 -0.543461 177.595
lowerback -29.992 -2.14506 -7.40535
upperback -0.999704 -0.917245 -0.0386503
thorax 14.7482 -1.17412 3.54532
lowerneck -5.40452 -1.45586 -1.17794
upperneck 5.02275 -2.05872 4.33308
head 2.60794 -0.882121 1.52167
rclavicle 1.09332e-015 -3.97569e-015
rhumerus -36.7532 -18.4154 -79.4406
rradius 31.5889
rwrist -6.44356
rhand -15.5717 -76.1802
rfingers 7.12502
rthumb 10.6133 -254.108
lclavicle 1.09332e-015 -3.97569e-015
lhumerus -30.6632 7.42283 80.9986
lradius 21.2421
lwrist -4.02973
lhand -22.2893 -13.568
lfingers 7.12502
lthumb 4.12939 16.3717
rfemur -22.2789 7.63764 18.5631
rtibia 8.64225
rfoot -18.9757 -3.14828
rtoes -18.1318
lfemur -22.7597 -9.00659 -21.6951
ltibia 8.23298
lfoot -6.82398 -2.2688
ltoes -34.2907
89
root 16.2037 16.3489 21.1605 -155.211 -0.687152 177.557
lowerback -29.8833 -2.2149 -7.48863
upperback -0.996302 -0.989182 -0.000947088
thorax 14.7125 -1.20942 3.60536
lowerneck -5.43568 -1.56482 -0.973623
upperneck 5.16862 -2.21191 4.07617
head 2.65864 -0.961196 1.3959
rclavicle 2.95692e-015 1.96797e-014
rhumerus -36.7147 -18.5208 -79.37
rradius 31.5232
rwrist -6.35369
rhand -15.6387 -76.3045
rfingers 7.12502
rthumb 10.5487 -253.98
lclavicle 2.95692e-015 1.96797e-014
lhumerus -30.6755 7.30285 81.0501
lradius 21.2598
lwrist -3.83541
lhand -22.358 -13.7479
lfingers 7.12502
lthumb 4.06308 16.1931
rfemur -22.2128 7.588 18.5799
rtibia 8.62567
rfoot -18.9454 -3.36224
rtoes -18.8049
lfemur -22.7765 -8.93154 -21.743
ltibia 8.31755
lfoot -6.74364 -2.49989
ltoes -31.8499
90
root 16.2062 16.35 21.163 -155.226 -0.687583 177.477
lowerback -29.8311 -2.24151 -7.59344
upperback -1.00153 -0.990549 -0.0197457
thorax 14.6822 -1.2155 3.64172
lowerneck -5.50999 -1.64884 -0.78104
upperneck 5.3182 -2.33566 3.94548
head 2.72023 -1.01984 1.31466
rclavicle -1.41634e-015 -2.24627e-014
rhumerus -36.6063 -18.8169 -79.3261
rradius 31.3303
rwrist -6.20915
rhand -15.7127 -76.3966
rfingers 7.12502
rthumb 10.4773 -253.884
lclavicle -1.41634e-015 -2.24627e-014
lhumerus -30.7205 7.34128 80.9986
lradius 21.2827
lwrist -3.89335
lhand -22.2687 -13.9096
lfingers 7.12502
lthumb 4.1493 16.0297
rfemur -22.2143 7.53393 18.5101
rtibia 8.64873
rfoot -18.8897 -3.40741
rtoes -18.7926
lfemur -22.7778 -8.86454 -21.8476
ltibia 8.33941
lfoot -6.79113 -2.62084
ltoes -34.0244
91
root 16.2105 16.3487 21.1682 -155.184 -0.724552 177.447
lowerback -29.8 -2.26824 -7.64884
upperback -1.02478 -1.01551 -0.000871072
thorax 14.6442 -1.22999 3.68273
lowerneck -5.4888 -1.61428 -0.853287
upperneck 5.28223 -2.2864 4.01615
head 2.70556 -0.995041 1.35246
rclavicle 2.78299e-015 1.86858e-014
rhumerus -36.5401 -18.9391 -79.3081
rradius 31.2625
rwrist -6.13235
rhand -15.7785 -76.6123
rfingers 7.12502
rthumb 10.4138 -253.666
lclavicle 2.78299e-015 1.86858e-014
lhumerus -30.7839 7.39848 81.0062
lradius 21.3779
lwrist -3.88798
lhand -22.1948 -14.0408
lfingers 7.12502
lthumb 4.2207 15.8972
rfemur -22.28 7.59469 18.4811
rtibia 8.65883
rfoot -18.8888 -3.43618
rtoes -18.0592
lfemur -22.8708 -8.8796 -21.8313
ltibia 8.37381
lfoot -6.78598 -2.66885
ltoes -33.1736
92
root 16.2122 16.3514 21.1686 -155.294 -0.781217 177.473
lowerback -29.7014 -2.2641 -7.62217
upperback -0.995986 -1.02098 0.0288631
thorax 14.6353 -1.22806 3.70188
lowerneck -5.45093 -1.52851 -0.956076
upperneck 5.24438 -2.16553 4.06696
head 2.68515 -0.936548 1.3921
rclavicle -7.33018e-015 -7.55382e-015
rhumerus -36.5913 -18.861 -79.3017
rradius 31.3632
rwrist -6.146
rhand -15.8379 -76.8462
rfingers 7.12502
rthumb 10.3565 -253.429
lclavicle -7.33018e-015 -7.55382e-015
lhumerus -30.8265 7.3824 81.0638
lradius 21.4599
lwrist -3.82832
lhand -22.3423 -14.0104
lfingers 7.12502
lthumb 4.07826 15.9303
rfemur -22.1316 7.69111 18.51
rtibia 8.61051
rfoot -18.9092 -3.47872
rtoes -17.3601
lfemur -22.7503 -9.0483 -21.7512
ltibia 8.3567
lfoot -6.71218 -2.53411
ltoes -32.339
93
root 16.2142 16.3539 21.1694 -155.363 -0.791282 177.467
lowerback -29.6531 -2.24614 -7.62296
upperback -0.971652 -0.993056 0.0173557
thorax 14.6383 -1.21385 3.70244
lowerneck -5.50995 -1.44808 -0.84704
upperneck 5.34582 -2.18751 3.95003
head 2.72656 -1.00188 1.3315
rclavicle 7.0817e-015 -1.33186e-014
rhumerus -36.6265 -18.8128 -79.3456
rradius 31.4423
rwrist -6.25444
rhand -15.9181 -77.0378
rfingers 7.12502
rthumb 10.2791 -253.233
lclavicle 7.0817e-015 -1.33186e-014
lhumerus -30.8064 7.35054 81.0534
lradius 21.4457
lwrist -3.89404
lhand -22.45 -13.981
lfingers 7.12502
lthumb 3.97426 15.9617
rfemur -22.0355 7.58729 18.5532
rtibia 8.56809
rfoot -18.8972 -3.44789
rtoes -17.5955
lfemur -22.6679 -8.9934 -21.7658
ltibia 8.35385
lfoot -6.7024 -2.62132
ltoes -30.779
94
root 16.2174 16.352 21.1689 -155.342 -0.695995 177.353
lowerback -29.6877 -2.23288 -7.74867
upperback -0.979705 -0.928628 -0.02976
thorax 14.6351 -1.19398 3.74303
lowerneck -5.50572 -1.45744 -0.78201
upperneck 5.43756 -2.20203 3.85263
head 2.75407 -1.00993 1.28803
rclavicle -2.36057e-015 -1.43125e-014
rhumerus -36.659 -18.7367 -79.4092
rradius 31.518
rwrist -6.4044
rhand -16.005 -77.2886
rfingers 7.12502
rthumb 10.1953 -252.978
lclavicle -2.36057e-015 -1.43125e-014
lhumerus -30.7656 7.2605 81.0427
lradius 21.3617
lwrist -3.92534
lhand -22.4154 -13.9831
lfingers 7.12502
lthumb 4.00763 15.959
rfemur -22.08 7.53173 18.4237
rtibia 8.58185
rfoot -18.8984 -3.43221
rtoes -17.9749
lfemur -22.6387 -8.87188 -21.9175
ltibia 8.25292
lfoot -6.7267 -2.75673
ltoes -31.0276
95
root 16.2198 16.3489 21.1687 -155.28 -0.588048 177.238
lowerback -29.7472 -2.21429 -7.85222
upperback -1.01981 -0.868523 -0.0910954
thorax 14.6053 -1.17506 3.7532
lowerneck -5.41755 -1.41505 -0.804396
upperneck 5.45015 -2.14611 3.87081
head 2.74101 -0.983317 1.30049
rclavicle -1.16786e-014 -8.94531e-015
rhumerus -36.7352 -18.6636 -79.4647
rradius 31.6015
rwrist -6.51771
rhand -16.0957 -77.564
rfingers 7.12502
rthumb 10.1079 -252.699
lclavicle -1.16786e-014 -8.94531e-015
lhumerus -30.7976 7.12807 81.0397
lradius 21.3276
lwrist -3.79543
lhand -22.3887 -13.9231
lfingers 7.12502
lthumb 4.03339 16.0185
rfemur -22.1996 7.62693 18.2365
rtibia 8.64163
rfoot -18.9161 -3.46924
rtoes -18.2233
lfemur -22.6949 -8.76738 -22.0701
ltibia 8.21763
lfoot -6.74025 -2.78026
ltoes -30.8795
